<?xml version="1.0" encoding="utf-8"?>
<!-- Generator: Adobe Illustrator 22.1.0, SVG Export Plug-In . SVG Version: 6.00 Build 0)  -->
<svg version="1.1" id="Warstwa_1" xmlns="http://www.w3.org/2000/svg" xmlns:xlink="http://www.w3.org/1999/xlink" x="0px" y="0px"
	 viewBox="0 0 249.6 133.3" style="enable-background:new 0 0 249.6 133.3;" xml:space="preserve">
<style type="text/css">
	.st0{fill:#FFFFFF;}
	.st1{enable-background:new    ;}
</style>
<title>Obszar roboczy 1</title>
<g id="_Group_">
	<g id="_Group_2">
		<rect id="_Rectangle_" x="28.5" y="20.9" class="st0" width="13.6" height="35.4"/>
		<rect id="_Rectangle_2" x="47.4" y="11.7" class="st0" width="13.6" height="53.8"/>
		<rect id="_Rectangle_3" x="66.3" y="-0.1" class="st0" width="13.6" height="77.5"/>
		<rect id="_Rectangle_4" x="86.7" y="27.6" class="st0" width="77.5" height="17.4"/>
		<rect id="_Rectangle_5" x="208.7" y="21" class="st0" width="13.6" height="35.4"/>
		<rect id="_Rectangle_6" x="189.8" y="11.8" class="st0" width="13.6" height="53.8"/>
		<rect id="_Rectangle_7" x="170.9" class="st0" width="13.6" height="77.5"/>
	</g>
	<g class="st1">
		<path class="st0" d="M25.9,108.4l-5.3,24.9h-4.9l-2.7-13.8l-2.7,13.8H5.4L0,108.4h5.4l2.7,15.9l2.7-15.9h4.3l2.7,15.9l2.7-15.9
			H25.9z"/>
		<path class="st0" d="M45,130.2c0,2.1-1,3.1-3.1,3.1H31.8c-2.1,0-3.2-1-3.2-3.1v-18.7c0-2.1,1.1-3.1,3.2-3.1h10.1
			c2.1,0,3.1,1,3.1,3.1V130.2z M39.5,128.6v-15.5h-5.3v15.5H39.5z"/>
		<path class="st0" d="M64.8,118.8h-5.6v-5.7l-4.5,0.1v20.1h-5.6v-24.9h5.6v0.9c1.2-0.2,2.3-0.4,3.5-0.6c1.4-0.2,2.6-0.4,3.5-0.4
			c2.1,0,3.1,1,3.1,3V118.8z"/>
		<path class="st0" d="M84.5,133.3h-6l-4.9-11.4v11.4h-5.6V94.8h5.6v23.1l4.5-9.5h5.9v0.1l-5.7,11.3L84.5,133.3z"/>
		<path class="st0" d="M103.3,130.2c0,2.1-1,3.1-3.1,3.1H90.1c-2.1,0-3.2-1-3.2-3.1v-18.7c0-2.1,1.1-3.1,3.2-3.1h10.1
			c2.1,0,3.1,1,3.1,3.1V130.2z M97.8,128.6v-15.5h-5.3v15.5H97.8z"/>
		<path class="st0" d="M123.9,133.3h-5.6v-0.9c-1.3,0.2-2.6,0.4-3.9,0.6c-1.6,0.2-2.9,0.4-3.9,0.4c-2.1,0-3.1-1-3.1-3.1v-21.9h5.6
			v20.2l5.3-0.1v-20.1h5.6V133.3z"/>
		<path class="st0" d="M138.8,133.3h-6.3c-2.1,0-3.1-1-3.1-3.1v-17h-2.7v-4.8h2.7v-6.7h5.6v6.7h3.6v4.8H135v15.3h3.8V133.3z"/>
		<path class="st0" d="M168.3,130.2c0,2.1-1,3.1-3.1,3.1h-9.8c-2.1,0-3.2-1-3.2-3.1v-18.7c0-2.1,1.1-3.1,3.2-3.1h9.8
			c2.1,0,3.1,1,3.1,3.1v5.9h-5.5v-4.3h-5v15.5h5v-4.8h5.5V130.2z"/>
		<path class="st0" d="M188.8,130.2c0,2.1-1,3.1-3.1,3.1h-10.1c-2.1,0-3.2-1-3.2-3.1v-18.7c0-2.1,1.1-3.1,3.2-3.1h10.1
			c2.1,0,3.1,1,3.1,3.1V130.2z M183.3,128.6v-15.5h-5.3v15.5H183.3z"/>
		<path class="st0" d="M208.9,133.3h-5.4v-0.9c-1.3,0.2-2.6,0.4-3.8,0.6c-1.7,0.2-2.9,0.4-3.8,0.4c-2.1,0-3.1-1-3.1-3v-9
			c0-2.1,1.1-3.1,3.2-3.1h7.6v-5.7h-5.4v3.5H193v-4.7c0-2.1,1.1-3.1,3.2-3.1h9.5c2.1,0,3.1,1,3.1,3.1V133.3z M203.5,128.8v-6.7h-5.4
			v6.9L203.5,128.8z"/>
		<path class="st0" d="M229,130.2c0,2.1-1,3.1-3.1,3.1h-9.8c-2.1,0-3.2-1-3.2-3.1v-18.7c0-2.1,1.1-3.1,3.2-3.1h9.8
			c2.1,0,3.1,1,3.1,3.1v5.9h-5.5v-4.3h-5v15.5h5v-4.8h5.5V130.2z"/>
		<path class="st0" d="M249.6,133.3h-5.7v-20.2l-5.3,0.1v20.1H233V94.8h5.6v14.6c1.3-0.2,2.6-0.4,3.9-0.6c1.7-0.3,3-0.4,3.9-0.4
			c2.1,0,3.1,1,3.1,3V133.3z"/>
	</g>
</g>
</svg>
